<svg xmlns="http://www.w3.org/2000/svg" fill="none" viewBox="0 0 283 64">
  <path
    fill="black"
    d="M141 16c-11 0-19 7-19 18s9 18 20 18c7 0 13-3 16-7l-7-5c-2 3-6 4-9 4-5 0-9-3-10-7h28v-3c0-11-8-18-19-18Zm-9 15c1-4 4-7 9-7s8 3 9 7h-18Zm117-15c-11 0-19 7-19 18s9 18 20 18c7 0 13-3 16-7l-7-5c-2 3-6 4-9 4-5 0-9-3-10-7h28v-3c0-11-8-18-19-18Zm-9 15c1-4 4-7 9-7s8 3 9 7h-18Zm-39 3c0 6 4 10 10 10 4 0 7-2 9-5l7 5c-3 5-9 8-16 8-11 0-19-7-19-18s8-18 19-18c7 0 13 3 16 8l-7 5c-2-3-5-5-9-5-6 0-10 4-10 10Zm68-29v46h-9V5h9ZM37 0l37 64H0L37 0Zm92 5-27 48L74 5h10l18 30 17-30h10Zm59 12v10l-3-1c-6 0-10 4-10 10v15h-9V17h9v9c0-5 6-9 13-9Z"
  />
</svg>
